<?xml version="1.0" standalone="no"?>
<!DOCTYPE svg PUBLIC "-//W3C//DTD SVG 20010904//EN"
 "http://www.w3.org/TR/2001/REC-SVG-20010904/DTD/svg10.dtd">
<svg version="1.0" xmlns="http://www.w3.org/2000/svg"
 width="260.000000pt" height="260.000000pt" viewBox="0 0 260.000000 260.000000"
 preserveAspectRatio="xMidYMid meet">
<metadata>
Created by potrace 1.11, written by Peter Selinger 2001-2013
</metadata>
<g transform="translate(0.000000,260.000000) scale(0.100000,-0.100000)"
fill="#000000" stroke="none">
<path d="M432 2167 l-122 -123 2 -349 3 -350 125 0 125 0 3 113 3 112 214 0
214 0 3 -112 3 -113 125 0 125 0 0 470 0 470 -350 3 -350 2 -123 -123z m568
-237 l0 -100 -215 0 -215 0 0 100 0 100 215 0 215 0 0 -100z"/>
<path d="M1352 2278 c-19 -19 -17 -911 2 -927 9 -8 52 -11 127 -9 l114 3 3
228 2 227 215 0 215 0 2 -227 3 -228 114 -3 c75 -2 118 1 127 9 11 9 14 72 14
348 l0 336 -123 123 c-68 67 -126 120 -130 116 -4 -4 -7 -54 -7 -111 l0 -103
-215 0 -215 0 0 109 c0 90 -3 110 -16 115 -30 11 -219 7 -232 -6z"/>
<path d="M322 1248 c-9 -9 -12 -96 -12 -352 l0 -339 117 -119 c64 -65 123
-118 130 -118 10 0 13 26 13 110 l0 110 215 0 215 0 0 -109 c0 -90 3 -110 16
-115 30 -11 219 -7 232 6 19 19 17 911 -2 927 -9 8 -52 11 -127 9 l-114 -3 -3
-227 -2 -228 -215 0 -215 0 -2 228 -3 227 -115 3 c-81 2 -119 -1 -128 -10z"/>
<path d="M1345 1248 c-3 -7 -4 -220 -3 -473 l3 -460 350 -3 350 -2 123 123
122 123 -2 349 -3 350 -125 0 -125 0 -3 -112 -3 -113 -214 0 -214 0 -3 113 -3
112 -123 3 c-92 2 -124 -1 -127 -10z m685 -578 l0 -100 -215 0 -215 0 0 100 0
100 215 0 215 0 0 -100z"/>
</g>
</svg>
